<?xml version="1.0" encoding="UTF-8" standalone="no"?>
<!-- Created with Inkscape (http://www.inkscape.org/) -->

<svg
   xmlns:dc="http://purl.org/dc/elements/1.1/"
   xmlns:cc="http://creativecommons.org/ns#"
   xmlns:rdf="http://www.w3.org/1999/02/22-rdf-syntax-ns#"
   xmlns:svg="http://www.w3.org/2000/svg"
   xmlns="http://www.w3.org/2000/svg"
   xmlns:sodipodi="http://sodipodi.sourceforge.net/DTD/sodipodi-0.dtd"
   xmlns:inkscape="http://www.inkscape.org/namespaces/inkscape"
   width="512"
   height="512"
   viewBox="0 0 135.46666 135.46667"
   version="1.1"
   id="svg1012"
   inkscape:version="0.92.3 (unknown)"
   sodipodi:docname="ic_launcher.svg"
   inkscape:export-filename="/home/gpm/Priv/java/android/project-android/salecalc/chekupil/libs/images/ic_launcher.png"
   inkscape:export-xdpi="96"
   inkscape:export-ydpi="96">
  <defs
     id="defs1006" />
  <sodipodi:namedview
     id="base"
     pagecolor="#ffffff"
     bordercolor="#666666"
     borderopacity="1.0"
     inkscape:pageopacity="0.0"
     inkscape:pageshadow="2"
     inkscape:zoom="0.29313167"
     inkscape:cx="-437.70243"
     inkscape:cy="-76.899842"
     inkscape:document-units="px"
     inkscape:current-layer="layer5"
     showgrid="false"
     units="px"
     inkscape:window-width="1920"
     inkscape:window-height="1026"
     inkscape:window-x="1920"
     inkscape:window-y="0"
     inkscape:window-maximized="1" />
  <metadata
     id="metadata1009">
    <rdf:RDF>
      <cc:Work
         rdf:about="">
        <dc:format>image/svg+xml</dc:format>
        <dc:type
           rdf:resource="http://purl.org/dc/dcmitype/StillImage" />
        <dc:title />
      </cc:Work>
    </rdf:RDF>
  </metadata>
  <g
     inkscape:groupmode="layer"
     id="layer5"
     inkscape:label="fon"
     style="display:inline">
    <rect
       style="opacity:1;fill:#fff000;fill-opacity:1;stroke:#ffffff;stroke-width:1.32291663;stroke-linejoin:round;stroke-miterlimit:4;stroke-dasharray:none;stroke-dashoffset:0;stroke-opacity:1"
       id="rect825"
       width="134.00516"
       height="134.00516"
       x="0.73075271"
       y="0.73074615"
       ry="18.092253" />
  </g>
  <g
     inkscape:label="Layer 1"
     inkscape:groupmode="layer"
     id="layer1"
     transform="translate(0,-161.53331)"
     style="display:inline">
    <g
       id="g867"
       transform="matrix(1.1646921,0,0,1.1646921,-12.049692,-25.65483)">
      <g
         id="g834">
        <rect
           style="display:inline;fill:#00b207;fill-opacity:1;stroke:#000000;stroke-width:2.64583325;stroke-miterlimit:4;stroke-dasharray:none;stroke-opacity:1"
           id="rect3856"
           width="97.79586"
           height="65.668068"
           x="19.603456"
           y="203.4297"
           ry="5.814362"
           inkscape:export-xdpi="96"
           inkscape:export-ydpi="96" />
        <path
           style="display:inline;fill:#000000;fill-opacity:1;stroke:#ffffff;stroke-width:1.32291663;stroke-linejoin:round;stroke-miterlimit:4;stroke-dasharray:none;stroke-dashoffset:0;stroke-opacity:1"
           d="m 68.501382,165.20269 a 33.866666,44.026665 0 0 0 -33.838693,42.99421 5.0799999,5.0799999 0 0 0 -1.755359,3.83274 5.0799999,5.0799999 0 0 0 5.079865,5.07987 5.0799999,5.0799999 0 0 0 5.080215,-5.07987 5.0799999,5.0799999 0 0 0 -1.626201,-3.71653 27.093332,37.253333 0 0 1 27.060173,-36.33715 27.093332,37.253333 0 0 1 27.071381,36.39876 5.0799999,5.0799999 0 0 0 -1.552692,3.65492 5.0799999,5.0799999 0 0 0 5.079864,5.07987 5.0799999,5.0799999 0 0 0 5.080215,-5.07987 5.0799999,5.0799999 0 0 0 -1.85512,-3.92199 33.866666,44.026665 0 0 0 -33.823648,-42.90496 z"
           id="path6127"
           inkscape:connector-curvature="0"
           inkscape:export-xdpi="96"
           inkscape:export-ydpi="96" />
        <circle
           style="display:inline;opacity:1;fill:#ffffff;fill-opacity:1;stroke:none;stroke-width:5.33551168;stroke-linejoin:round;stroke-miterlimit:4;stroke-dasharray:none;stroke-dashoffset:0;stroke-opacity:1"
           id="path6347"
           cx="41.936749"
           cy="246.78395"
           r="13.229166"
           inkscape:export-xdpi="96"
           inkscape:export-ydpi="96" />
        <circle
           style="display:inline;opacity:1;fill:#ffffff;fill-opacity:1;stroke:none;stroke-width:3.73485827;stroke-linejoin:round;stroke-miterlimit:4;stroke-dasharray:none;stroke-dashoffset:0;stroke-opacity:1"
           id="path6347-7"
           cx="63.882904"
           cy="231.8653"
           r="9.260417"
           inkscape:export-xdpi="96"
           inkscape:export-ydpi="96" />
        <circle
           style="display:inline;opacity:1;fill:#ffffff;fill-opacity:1;stroke:none;stroke-width:2.13420463;stroke-linejoin:round;stroke-miterlimit:4;stroke-dasharray:none;stroke-dashoffset:0;stroke-opacity:1"
           id="path6347-7-9"
           cx="80.685219"
           cy="220.74158"
           r="5.2916665"
           inkscape:export-xdpi="96"
           inkscape:export-ydpi="96" />
      </g>
    </g>
  </g>
  <g
     inkscape:groupmode="layer"
     id="layer4"
     inkscape:label="beta"
     style="display:none">
    <path
       style="opacity:1;fill:#003399;fill-opacity:1;stroke:#f6f6f6;stroke-width:0.32014582;stroke-linejoin:round;stroke-miterlimit:4;stroke-dasharray:none;stroke-dashoffset:0;stroke-opacity:1"
       d="m 117.39931,47.188065 c -1.18494,0.02049 -2.37091,0.438567 -3.34653,1.271828 L 42.456422,109.60963 c -2.229994,1.90458 -2.492361,5.23278 -0.587768,7.46276 l 10.710504,12.54009 c 1.904596,2.23 5.233404,2.49236 7.4634,0.58778 L 131.63892,69.050523 c 2.22999,-1.904596 2.49174,-5.23278 0.58714,-7.462776 L 121.51618,49.047661 c -1.07133,-1.254374 -2.59339,-1.885953 -4.11687,-1.859596 z m -12.77895,22.308286 c 0.89393,0.03519 1.66272,0.430309 2.30668,1.18429 l 3.18582,3.729824 0.29513,-0.252618 c 0.81246,-0.693896 1.48149,-0.733047 2.00718,-0.117551 0.52567,0.615493 0.38225,1.270117 -0.43021,1.964017 l -2.16035,1.845215 -0.36267,-0.424568 c -0.51321,1.268608 -1.32966,2.38103 -2.44986,3.33777 -0.91094,0.778008 -1.89764,1.205948 -2.96009,1.283087 -1.07298,0.06483 -1.90425,-0.247326 -2.49302,-0.936676 -0.71492,-0.837073 -0.92249,-1.915946 -0.62341,-3.235852 0.28857,-1.332217 1.09726,-2.566212 2.42673,-3.701687 0.55395,-0.473111 1.24703,-0.957831 2.07845,-1.455037 l -0.36266,-0.425191 c -0.51517,-0.603186 -1.34507,-0.415639 -2.48989,0.562131 -0.5047,0.431057 -1.01425,0.993841 -1.5282,1.688267 -0.52446,0.682117 -0.85441,1.081145 -0.98982,1.196794 -0.258508,0.220789 -0.547746,0.318407 -0.867271,0.29326 -0.330052,-0.03747 -0.610336,-0.191268 -0.84164,-0.462086 -0.336428,-0.393916 -0.372958,-0.810187 -0.108779,-1.248693 0.730937,-1.262955 1.632157,-2.3518 2.70312,-3.26649 1.13251,-0.967253 2.22384,-1.48408 3.27399,-1.550703 0.1328,-0.0097 0.26309,-0.01254 0.39079,-0.0075 z m 2.30542,4.921615 c -0.89116,0.52695 -1.63201,1.042302 -2.22287,1.546957 -0.62781,0.536193 -1.07265,1.150103 -1.33374,1.841464 -0.24879,0.680847 -0.22049,1.199972 0.0845,1.556957 0.17873,0.209268 0.46142,0.265968 0.8479,0.170078 0.38646,-0.0959 0.77661,-0.311985 1.17053,-0.648419 1.0094,-0.862119 1.75673,-2.043681 2.24226,-3.544114 z m -12.310596,2.434859 2.002792,2.344819 c 0.336428,0.393917 0.526302,0.753072 0.569632,1.077992 0.05566,0.314402 -0.09511,0.624278 -0.452093,0.929171 -0.61549,0.525684 -1.270112,0.382259 -1.964011,-0.430194 l -0.409563,-0.48022 -1.625115,1.388133 3.721696,4.357611 c 0.750902,-0.641332 1.378698,-0.666533 1.883353,-0.07566 0.546714,0.640113 0.414147,1.307012 -0.398308,2.000912 l -1.643869,1.403765 c -0.824761,0.70441 -1.499614,0.748676 -2.025298,0.133183 -0.525678,-0.615493 -0.413246,-1.2439 0.33765,-1.885233 l -3.72169,-4.35761 -1.625115,1.387509 0.410187,0.480218 c 0.336435,0.393914 0.52631,0.753074 0.569635,1.077989 0.05564,0.314406 -0.0951,0.624279 -0.452082,0.929176 -0.615495,0.525679 -1.270119,0.382253 -1.964019,-0.430197 l -2.002789,-2.34482 z M 83.281896,88.320551 c 1.625857,0.05906 2.980196,0.722366 4.063099,1.990279 l 0.615281,0.720329 -7.533431,6.434179 c 1.343736,0.725807 2.815478,0.405084 4.415761,-0.961684 0.652422,-0.557217 1.294578,-1.275642 1.9265,-2.155983 0.621412,-0.892653 1.012382,-1.407152 1.172409,-1.543829 0.246199,-0.210272 0.534103,-0.296951 0.864144,-0.259495 0.319532,0.02516 0.589584,0.166688 0.81037,0.425196 0.336439,0.393916 0.258079,1.025064 -0.235105,1.893361 -0.503703,0.855993 -1.043003,1.583251 -1.618238,2.180991 -0.562926,0.587237 -1.066281,1.069677 -1.509437,1.448165 -1.427946,1.219583 -2.938999,1.81857 -4.533315,1.79644 -1.594318,-0.0221 -2.927559,-0.660892 -3.999948,-1.916497 -1.040849,-1.218675 -1.457713,-2.629777 -1.251194,-4.232551 0.208313,-1.625595 0.983029,-3.010908 2.324806,-4.156896 1.378708,-1.177524 2.87475,-1.731582 4.488298,-1.662005 z m -0.201343,2.409222 c -0.175808,-2.01e-4 -0.356566,0.01562 -0.542746,0.0469 -0.755238,0.112796 -1.471435,0.457848 -2.148481,1.036098 -0.677044,0.578251 -1.136888,1.237096 -1.378752,1.975899 -0.229553,0.728292 -0.20135,1.396617 0.08379,2.004654 l 5.428728,-4.636481 C 84.089009,90.872936 83.607986,90.730377 83.08056,90.729775 Z m -12.525705,2.042179 2.381083,2.788144 c 0.693902,0.812455 0.733049,1.481488 0.117551,2.007173 -0.615496,0.525672 -1.27012,0.382251 -1.96402,-0.430204 l -0.804116,-0.941682 -4.727153,4.037467 2.223512,2.60369 3.305256,-2.82316 c 1.230987,-1.051369 2.39489,-1.545327 3.492215,-1.481923 1.097326,0.0634 2.024913,0.538075 2.781894,1.4244 0.904172,1.058643 1.303496,2.112103 1.198043,3.160183 -0.09314,1.03757 -0.780087,2.10304 -2.060312,3.19646 l -5.446858,4.65212 c -0.81245,0.6939 -1.481481,0.73304 -2.007163,0.11749 -0.52568,-0.61549 -0.382255,-1.27012 0.430196,-1.96403 l 0.277003,-0.23634 -6.040253,-7.07198 -0.276999,0.23636 c -0.812453,0.6939 -1.481485,0.73304 -2.007168,0.11749 -0.304894,-0.35699 -0.405519,-0.68612 -0.301385,-0.98795 0.105919,-0.32466 0.349977,-0.65015 0.731582,-0.97607 z m 3.831745,8.334418 c -0.551244,-0.007 -1.186992,0.29599 -1.907118,0.91105 l -3.120799,2.66557 2.239774,2.62183 3.15706,-2.69686 c 1.255608,-1.07238 1.510566,-2.04545 0.764098,-2.91944 -0.326578,-0.38238 -0.70427,-0.57635 -1.133015,-0.58215 z"
       id="rect6382"
       inkscape:connector-curvature="0" />
  </g>
</svg>
