<?xml version="1.0" encoding="UTF-8" standalone="no"?>
<!-- Created with Inkscape (http://www.inkscape.org/) -->

<svg
   xmlns:dc="http://purl.org/dc/elements/1.1/"
   xmlns:cc="http://creativecommons.org/ns#"
   xmlns:rdf="http://www.w3.org/1999/02/22-rdf-syntax-ns#"
   xmlns:svg="http://www.w3.org/2000/svg"
   xmlns="http://www.w3.org/2000/svg"
   xmlns:sodipodi="http://sodipodi.sourceforge.net/DTD/sodipodi-0.dtd"
   xmlns:inkscape="http://www.inkscape.org/namespaces/inkscape"
   width="512"
   height="512"
   viewBox="0 0 135.46666 135.46667"
   version="1.1"
   id="svg1012"
   inkscape:version="0.92.3 (unknown)"
   sodipodi:docname="ic_notification.svg"
   inkscape:export-filename="/home/gpm/Priv/java/android/project-android/salecalc/chekupil/libs/images/ic_notification.png"
   inkscape:export-xdpi="96"
   inkscape:export-ydpi="96">
  <defs
     id="defs1006" />
  <sodipodi:namedview
     id="base"
     pagecolor="#ffffff"
     bordercolor="#666666"
     borderopacity="1.0"
     inkscape:pageopacity="0.0"
     inkscape:pageshadow="2"
     inkscape:zoom="0.98994949"
     inkscape:cx="65.137292"
     inkscape:cy="257.00487"
     inkscape:document-units="px"
     inkscape:current-layer="layer3"
     showgrid="false"
     units="px"
     inkscape:window-width="1920"
     inkscape:window-height="1026"
     inkscape:window-x="1920"
     inkscape:window-y="0"
     inkscape:window-maximized="1" />
  <metadata
     id="metadata1009">
    <rdf:RDF>
      <cc:Work
         rdf:about="">
        <dc:format>image/svg+xml</dc:format>
        <dc:type
           rdf:resource="http://purl.org/dc/dcmitype/StillImage" />
        <dc:title />
      </cc:Work>
    </rdf:RDF>
  </metadata>
  <g
     inkscape:groupmode="layer"
     id="layer3"
     inkscape:label="Layer 2"
     style="display:inline">
    <path
       style="opacity:1;fill:#000000;fill-opacity:1;stroke:#000000;stroke-width:5.05076265;stroke-linejoin:round;stroke-miterlimit:4;stroke-dasharray:none;stroke-dashoffset:0;stroke-opacity:1"
       d="m 48.469775,480.16819 c -4.890125,-2.25694 -7.967677,-5.45485 -10.053313,-10.44648 -1.383664,-3.31157 -1.560891,-18.46833 -1.541257,-131.81112 0.02108,-121.69181 0.113789,-128.27092 1.861732,-132.11855 2.632135,-5.79395 8.064287,-10.18101 14.248608,-11.50731 2.849066,-0.61101 13.794551,-1.11094 24.323298,-1.11094 h 19.143178 v 6.6334 c 0,5.49709 -0.427242,7.19353 -2.494127,9.90336 -3.947963,5.17604 -5.587859,10.18003 -5.577225,17.01837 0.01697,10.91459 6.108632,20.34314 15.937641,24.66796 4.85532,2.13636 15.73845,2.20303 20.55896,0.12593 4.5113,-1.94386 11.60507,-8.22518 13.56132,-12.00814 4.44797,-8.60145 3.8308,-20.5064 -1.44287,-27.83173 -2.55486,-3.5488 -2.74582,-4.45575 -2.35511,-11.18554 l 0.42519,-7.32361 h 120.04991 120.0499 l 0.2968,7.32361 c 0.26864,6.62888 0.0105,7.79238 -2.72128,12.26526 -4.16373,6.81749 -4.78937,17.05181 -1.50862,24.67813 2.4761,5.75583 8.32138,11.64287 13.98216,14.08202 4.79209,2.06485 15.71856,2.05361 20.53557,-0.0211 5.71208,-2.46025 12.59328,-9.37375 14.64971,-14.71849 3.53206,-9.17992 1.51924,-20.97761 -4.76893,-27.95204 -1.27958,-1.41924 -1.92187,-4.04954 -2.15884,-8.84095 l -0.33734,-6.82065 19.39572,0.002 c 23.01942,0.003 28.36061,0.91096 33.69595,5.73112 7.57392,6.84258 7.0991,-3.01542 6.787,140.90887 l -0.27966,128.96022 -3.04398,4.37992 c -1.77953,2.56055 -4.91058,5.32404 -7.53764,6.65277 l -4.49368,2.27284 -202.57408,-0.0222 C 60.297268,482.03391 52.355065,481.96137 48.469775,480.16819 Z M 151.60625,444.46241 c 18.84812,-6.14462 34.16976,-21.70376 40.02038,-40.64071 3.24432,-10.50103 3.01387,-25.47924 -0.56001,-36.39659 -6.40388,-19.5623 -23.03965,-35.27099 -42.80454,-40.41908 -7.35101,-1.91471 -23.39556,-1.91559 -30.59686,-0.002 -21.22215,5.64023 -38.316074,22.73415 -43.956302,43.9563 -1.91247,7.19595 -1.912998,23.2459 -10e-4,30.58653 2.835776,10.88728 7.508259,18.84229 16.169821,27.52948 9.2065,9.23374 18.468221,14.44745 30.312871,17.06406 9.2973,2.05386 22.05873,1.37212 31.41564,-1.6783 z m 97.37881,-86.52896 c 16.72508,-6.35399 27.42088,-22.05983 27.381,-40.2066 -0.0261,-11.85066 -3.18419,-20.34611 -10.52351,-28.30832 -17.38459,-18.86006 -45.67752,-19.41314 -63.1453,-1.23438 -18.81296,19.57868 -14.34652,52.29764 9.05379,66.32379 11.03687,6.6155 25.36704,7.93386 37.23402,3.42551 z m 69.76653,-67.78662 c 4.73105,-1.31427 11.60957,-7.28536 14.16675,-12.29785 10.80151,-21.17271 -12.24042,-44.04341 -33.40195,-33.15371 -10.56042,5.43438 -15.8011,19.10395 -11.71446,30.55547 4.35691,12.20886 17.62874,18.59659 30.94966,14.89609 z"
       id="path937"
       inkscape:connector-curvature="0"
       transform="scale(0.26458333)" />
    <path
       style="opacity:1;fill:#000000;fill-opacity:1;stroke:#000000;stroke-width:5.05076265;stroke-linejoin:round;stroke-miterlimit:4;stroke-dasharray:none;stroke-dashoffset:0;stroke-opacity:1"
       d="m 109.07893,245.49308 c -14.103644,-4.92996 -18.088001,-21.29139 -8.10061,-33.26449 1.94371,-2.33015 2.3007,-4.28954 2.85267,-15.65736 C 106.4,143.66304 128.84639,90.155328 162.65492,56.346798 205.42695,13.574769 261.70161,3.4841487 311.61233,29.637215 c 13.579,7.115354 25.17919,16.130632 38.24844,29.725425 32.83532,34.155679 53.53283,85.11329 56.4017,138.86192 0.60109,11.26131 0.72101,11.73538 3.91938,15.49391 7.07456,8.31361 6.69361,18.91202 -0.9547,26.56033 -11.88687,11.88687 -31.39062,5.17564 -32.75449,-11.2708 -0.56095,-6.76429 0.0308,-9.17696 3.48011,-14.18977 2.4344,-3.53786 2.70802,-4.78594 2.53055,-11.54291 C 380.92896,144.09598 352.52403,84.908489 312.69784,57.863048 292.37342,44.060992 274.70721,38.967434 250.40106,39.901508 230.78431,40.655369 217.13659,45.036837 200.37714,55.961195 159.14638,82.836762 132.23668,135.36671 127.79407,197.64932 l -0.86965,12.19199 3.39441,5.05076 c 6.21532,9.24817 5.567,17.90565 -1.90006,25.3727 -5.7676,5.7676 -12.55091,7.60139 -19.33984,5.22831 z"
       id="path939"
       inkscape:connector-curvature="0"
       transform="scale(0.26458333)" />
  </g>
  <g
     inkscape:label="Layer 1"
     inkscape:groupmode="layer"
     id="layer1"
     transform="translate(0,-161.53331)"
     style="display:none">
    <g
       id="g867"
       transform="matrix(1.2155062,0,0,1.2155062,-15.797803,-36.223582)">
      <rect
         inkscape:export-ydpi="96"
         inkscape:export-xdpi="96"
         ry="5.814362"
         y="203.4297"
         x="19.603456"
         height="65.668068"
         width="97.79586"
         id="rect3856"
         style="display:inline;fill:#00b207;fill-opacity:1;stroke:#000000;stroke-width:2.64583325;stroke-miterlimit:4;stroke-dasharray:none;stroke-opacity:1" />
      <path
         inkscape:export-ydpi="96"
         inkscape:export-xdpi="96"
         inkscape:connector-curvature="0"
         id="path6127"
         d="m 68.501382,165.20269 a 33.866666,44.026665 0 0 0 -33.838693,42.99421 5.0799999,5.0799999 0 0 0 -1.755359,3.83274 5.0799999,5.0799999 0 0 0 5.079865,5.07987 5.0799999,5.0799999 0 0 0 5.080215,-5.07987 5.0799999,5.0799999 0 0 0 -1.626201,-3.71653 27.093332,37.253333 0 0 1 27.060173,-36.33715 27.093332,37.253333 0 0 1 27.071381,36.39876 5.0799999,5.0799999 0 0 0 -1.552692,3.65492 5.0799999,5.0799999 0 0 0 5.079864,5.07987 5.0799999,5.0799999 0 0 0 5.080215,-5.07987 5.0799999,5.0799999 0 0 0 -1.85512,-3.92199 33.866666,44.026665 0 0 0 -33.823648,-42.90496 z"
         style="display:inline;fill:#000000;fill-opacity:1;stroke:#ffffff;stroke-width:1.32291663;stroke-linejoin:round;stroke-miterlimit:4;stroke-dasharray:none;stroke-dashoffset:0;stroke-opacity:1" />
      <circle
         inkscape:export-ydpi="96"
         inkscape:export-xdpi="96"
         r="13.229166"
         cy="246.78395"
         cx="41.936749"
         id="path6347"
         style="display:inline;opacity:1;fill:#ffffff;fill-opacity:1;stroke:none;stroke-width:5.33551168;stroke-linejoin:round;stroke-miterlimit:4;stroke-dasharray:none;stroke-dashoffset:0;stroke-opacity:1" />
      <circle
         inkscape:export-ydpi="96"
         inkscape:export-xdpi="96"
         r="9.260417"
         cy="231.8653"
         cx="63.882904"
         id="path6347-7"
         style="display:inline;opacity:1;fill:#ffffff;fill-opacity:1;stroke:none;stroke-width:3.73485827;stroke-linejoin:round;stroke-miterlimit:4;stroke-dasharray:none;stroke-dashoffset:0;stroke-opacity:1" />
      <circle
         inkscape:export-ydpi="96"
         inkscape:export-xdpi="96"
         r="5.2916665"
         cy="220.74158"
         cx="80.685219"
         id="path6347-7-9"
         style="display:inline;opacity:1;fill:#ffffff;fill-opacity:1;stroke:none;stroke-width:2.13420463;stroke-linejoin:round;stroke-miterlimit:4;stroke-dasharray:none;stroke-dashoffset:0;stroke-opacity:1" />
    </g>
  </g>
  <g
     inkscape:groupmode="layer"
     id="layer4"
     inkscape:label="beta"
     style="display:none">
    <path
       style="opacity:1;fill:#003399;fill-opacity:1;stroke:#f6f6f6;stroke-width:0.32014582;stroke-linejoin:round;stroke-miterlimit:4;stroke-dasharray:none;stroke-dashoffset:0;stroke-opacity:1"
       d="m 117.39931,47.188065 c -1.18494,0.02049 -2.37091,0.438567 -3.34653,1.271828 L 42.456422,109.60963 c -2.229994,1.90458 -2.492361,5.23278 -0.587768,7.46276 l 10.710504,12.54009 c 1.904596,2.23 5.233404,2.49236 7.4634,0.58778 L 131.63892,69.050523 c 2.22999,-1.904596 2.49174,-5.23278 0.58714,-7.462776 L 121.51618,49.047661 c -1.07133,-1.254374 -2.59339,-1.885953 -4.11687,-1.859596 z m -12.77895,22.308286 c 0.89393,0.03519 1.66272,0.430309 2.30668,1.18429 l 3.18582,3.729824 0.29513,-0.252618 c 0.81246,-0.693896 1.48149,-0.733047 2.00718,-0.117551 0.52567,0.615493 0.38225,1.270117 -0.43021,1.964017 l -2.16035,1.845215 -0.36267,-0.424568 c -0.51321,1.268608 -1.32966,2.38103 -2.44986,3.33777 -0.91094,0.778008 -1.89764,1.205948 -2.96009,1.283087 -1.07298,0.06483 -1.90425,-0.247326 -2.49302,-0.936676 -0.71492,-0.837073 -0.92249,-1.915946 -0.62341,-3.235852 0.28857,-1.332217 1.09726,-2.566212 2.42673,-3.701687 0.55395,-0.473111 1.24703,-0.957831 2.07845,-1.455037 l -0.36266,-0.425191 c -0.51517,-0.603186 -1.34507,-0.415639 -2.48989,0.562131 -0.5047,0.431057 -1.01425,0.993841 -1.5282,1.688267 -0.52446,0.682117 -0.85441,1.081145 -0.98982,1.196794 -0.258508,0.220789 -0.547746,0.318407 -0.867271,0.29326 -0.330052,-0.03747 -0.610336,-0.191268 -0.84164,-0.462086 -0.336428,-0.393916 -0.372958,-0.810187 -0.108779,-1.248693 0.730937,-1.262955 1.632157,-2.3518 2.70312,-3.26649 1.13251,-0.967253 2.22384,-1.48408 3.27399,-1.550703 0.1328,-0.0097 0.26309,-0.01254 0.39079,-0.0075 z m 2.30542,4.921615 c -0.89116,0.52695 -1.63201,1.042302 -2.22287,1.546957 -0.62781,0.536193 -1.07265,1.150103 -1.33374,1.841464 -0.24879,0.680847 -0.22049,1.199972 0.0845,1.556957 0.17873,0.209268 0.46142,0.265968 0.8479,0.170078 0.38646,-0.0959 0.77661,-0.311985 1.17053,-0.648419 1.0094,-0.862119 1.75673,-2.043681 2.24226,-3.544114 z m -12.310596,2.434859 2.002792,2.344819 c 0.336428,0.393917 0.526302,0.753072 0.569632,1.077992 0.05566,0.314402 -0.09511,0.624278 -0.452093,0.929171 -0.61549,0.525684 -1.270112,0.382259 -1.964011,-0.430194 l -0.409563,-0.48022 -1.625115,1.388133 3.721696,4.357611 c 0.750902,-0.641332 1.378698,-0.666533 1.883353,-0.07566 0.546714,0.640113 0.414147,1.307012 -0.398308,2.000912 l -1.643869,1.403765 c -0.824761,0.70441 -1.499614,0.748676 -2.025298,0.133183 -0.525678,-0.615493 -0.413246,-1.2439 0.33765,-1.885233 l -3.72169,-4.35761 -1.625115,1.387509 0.410187,0.480218 c 0.336435,0.393914 0.52631,0.753074 0.569635,1.077989 0.05564,0.314406 -0.0951,0.624279 -0.452082,0.929176 -0.615495,0.525679 -1.270119,0.382253 -1.964019,-0.430197 l -2.002789,-2.34482 z M 83.281896,88.320551 c 1.625857,0.05906 2.980196,0.722366 4.063099,1.990279 l 0.615281,0.720329 -7.533431,6.434179 c 1.343736,0.725807 2.815478,0.405084 4.415761,-0.961684 0.652422,-0.557217 1.294578,-1.275642 1.9265,-2.155983 0.621412,-0.892653 1.012382,-1.407152 1.172409,-1.543829 0.246199,-0.210272 0.534103,-0.296951 0.864144,-0.259495 0.319532,0.02516 0.589584,0.166688 0.81037,0.425196 0.336439,0.393916 0.258079,1.025064 -0.235105,1.893361 -0.503703,0.855993 -1.043003,1.583251 -1.618238,2.180991 -0.562926,0.587237 -1.066281,1.069677 -1.509437,1.448165 -1.427946,1.219583 -2.938999,1.81857 -4.533315,1.79644 -1.594318,-0.0221 -2.927559,-0.660892 -3.999948,-1.916497 -1.040849,-1.218675 -1.457713,-2.629777 -1.251194,-4.232551 0.208313,-1.625595 0.983029,-3.010908 2.324806,-4.156896 1.378708,-1.177524 2.87475,-1.731582 4.488298,-1.662005 z m -0.201343,2.409222 c -0.175808,-2.01e-4 -0.356566,0.01562 -0.542746,0.0469 -0.755238,0.112796 -1.471435,0.457848 -2.148481,1.036098 -0.677044,0.578251 -1.136888,1.237096 -1.378752,1.975899 -0.229553,0.728292 -0.20135,1.396617 0.08379,2.004654 l 5.428728,-4.636481 C 84.089009,90.872936 83.607986,90.730377 83.08056,90.729775 Z m -12.525705,2.042179 2.381083,2.788144 c 0.693902,0.812455 0.733049,1.481488 0.117551,2.007173 -0.615496,0.525672 -1.27012,0.382251 -1.96402,-0.430204 l -0.804116,-0.941682 -4.727153,4.037467 2.223512,2.60369 3.305256,-2.82316 c 1.230987,-1.051369 2.39489,-1.545327 3.492215,-1.481923 1.097326,0.0634 2.024913,0.538075 2.781894,1.4244 0.904172,1.058643 1.303496,2.112103 1.198043,3.160183 -0.09314,1.03757 -0.780087,2.10304 -2.060312,3.19646 l -5.446858,4.65212 c -0.81245,0.6939 -1.481481,0.73304 -2.007163,0.11749 -0.52568,-0.61549 -0.382255,-1.27012 0.430196,-1.96403 l 0.277003,-0.23634 -6.040253,-7.07198 -0.276999,0.23636 c -0.812453,0.6939 -1.481485,0.73304 -2.007168,0.11749 -0.304894,-0.35699 -0.405519,-0.68612 -0.301385,-0.98795 0.105919,-0.32466 0.349977,-0.65015 0.731582,-0.97607 z m 3.831745,8.334418 c -0.551244,-0.007 -1.186992,0.29599 -1.907118,0.91105 l -3.120799,2.66557 2.239774,2.62183 3.15706,-2.69686 c 1.255608,-1.07238 1.510566,-2.04545 0.764098,-2.91944 -0.326578,-0.38238 -0.70427,-0.57635 -1.133015,-0.58215 z"
       id="rect6382"
       inkscape:connector-curvature="0" />
  </g>
</svg>
